
        <svg xmlns="http://www.w3.org/2000/svg" xmlns:xlink="http://www.w3.org/1999/xlink" version="1.1" width="164" height="90"  viewBox="0 0 3181.8181818181824 1100">
			
			<g transform="scale(9.090909090909092) translate(10, 10)">
				<defs id="SvgjsDefs1268"></defs><g id="SvgjsG1269" featureKey="symbolContainer" transform="matrix(1,0,0,1,0,0)" fill="#0d7377"><rect width="110" height="101" rx="8"></rect></g><g id="SvgjsG1270" featureKey="symbolFeature-0" transform="matrix(1.1308563312148512,0,0,1.1308563312148512,494.9596591102375,-267.3748224532487)" fill="#ffffff"><g xmlns="http://www.w3.org/2000/svg"><g><rect x="-420" y="249.7" class="st0" width="22.8" height="22.8" style="fill: none; stroke: #ffffff; stroke-width: 2; stroke-miterlimit: 10;"></rect><rect x="-413" y="256.7" class="st1" width="8.9" height="8.9" style="stroke: #ffffff; stroke-width: 2; stroke-miterlimit: 10;"></rect></g><g><rect x="-380.9" y="249.7" class="st0" width="22.8" height="22.8" style="fill: none; stroke: #ffffff; stroke-width: 2; stroke-miterlimit: 10;"></rect><rect x="-373.9" y="256.7" class="st1" width="8.9" height="8.9" style="stroke: #ffffff; stroke-width: 2; stroke-miterlimit: 10;"></rect></g><g><rect x="-420" y="289.4" class="st0" width="22.8" height="22.8" style="fill: none; stroke: #ffffff; stroke-width: 2; stroke-miterlimit: 10;"></rect><rect x="-413" y="296.4" class="st1" width="8.9" height="8.9" style="stroke: #ffffff; stroke-width: 2; stroke-miterlimit: 10;"></rect></g><polyline class="st0" points="-388.8,288.1 -388.8,309.3 -383.5,309.3  " style="fill: none; stroke: #ffffff; stroke-width: 2; stroke-miterlimit: 10;"></polyline><polyline class="st0" points="-373.9,309.3 -361.3,309.3 -361.3,298.7  " style="fill: none; stroke: #ffffff; stroke-width: 2; stroke-miterlimit: 10;"></polyline><line class="st0" x1="-361.3" y1="293.1" x2="-361.3" y2="289.4" style="fill: none; stroke: #ffffff; stroke-width: 2; stroke-miterlimit: 10;"></line><line class="st0" x1="-388.8" y1="293.1" x2="-383.5" y2="293.1" style="fill: none; stroke: #ffffff; stroke-width: 2; stroke-miterlimit: 10;"></line><line class="st0" x1="-379.2" y1="291.9" x2="-369.5" y2="291.9" style="fill: none; stroke: #ffffff; stroke-width: 2; stroke-miterlimit: 10;"></line><line class="st0" x1="-373.9" y1="286.8" x2="-373.9" y2="291.9" style="fill: none; stroke: #ffffff; stroke-width: 2; stroke-miterlimit: 10;"></line><line class="st0" x1="-383.2" y1="304" x2="-379.6" y2="304" style="fill: none; stroke: #ffffff; stroke-width: 2; stroke-miterlimit: 10;"></line><line class="st0" x1="-376.6" y1="298.7" x2="-371.6" y2="298.7" style="fill: none; stroke: #ffffff; stroke-width: 2; stroke-miterlimit: 10;"></line><line class="st0" x1="-369.5" y1="302.4" x2="-369.5" y2="309.3" style="fill: none; stroke: #ffffff; stroke-width: 2; stroke-miterlimit: 10;"></line><line class="st0" x1="-386.2" y1="283.8" x2="-381.8" y2="283.8" style="fill: none; stroke: #ffffff; stroke-width: 2; stroke-miterlimit: 10;"></line><line class="st0" x1="-363.5" y1="280.8" x2="-359.2" y2="280.8" style="fill: none; stroke: #ffffff; stroke-width: 2; stroke-miterlimit: 10;"></line><line class="st0" x1="-380.8" y1="279.5" x2="-377.3" y2="279.5" style="fill: none; stroke: #ffffff; stroke-width: 2; stroke-miterlimit: 10;"></line><line class="st0" x1="-370.5" y1="282.2" x2="-367.8" y2="282.2" style="fill: none; stroke: #ffffff; stroke-width: 2; stroke-miterlimit: 10;"></line><line class="st0" x1="-388.8" y1="272.2" x2="-388.8" y2="275.2" style="fill: none; stroke: #ffffff; stroke-width: 2; stroke-miterlimit: 10;"></line><line class="st0" x1="-388.8" y1="263.3" x2="-388.8" y2="269.2" style="fill: none; stroke: #ffffff; stroke-width: 2; stroke-miterlimit: 10;"></line><line class="st0" x1="-388.8" y1="249.7" x2="-388.8" y2="258.3" style="fill: none; stroke: #ffffff; stroke-width: 2; stroke-miterlimit: 10;"></line><line class="st0" x1="-410.5" y1="280.8" x2="-391.5" y2="280.8" style="fill: none; stroke: #ffffff; stroke-width: 2; stroke-miterlimit: 10;"></line><line class="st0" x1="-420" y1="280.8" x2="-413" y2="280.8" style="fill: none; stroke: #ffffff; stroke-width: 2; stroke-miterlimit: 10;"></line></g></g><g id="SvgjsG1271" featureKey="nameFeature-0" transform="matrix(1.2181916445429202,0,0,1.2181916445429202,127.53654861887875,15.619654344440825)" fill="#323232"><path d="M4.28 36.48 l4.64 -8.16 l0.4 -0.8 l0.96 -1.6 l0.28 -0.56 l0.28 -0.44 l0.24 -0.52 l0.12 -0.28 l0.36 -0.64 l0.48 -0.92 c0.12 -0.2 0.2 -0.4 0.32 -0.56 l0.4 -0.8 c0.16 -0.24 0.28 -0.52 0.4 -0.76 c0.12 -0.28 0.24 -0.56 0.32 -0.84 l0.12 -0.4 c0 -0.16 0.04 -0.28 0.08 -0.4 l0 -0.16 c0 -0.04 0 -0.08 0.04 -0.12 l0 -0.08 c0 -0.04 0 -0.04 -0.04 -0.04 l-0.28 0 c-0.12 0.04 -0.2 0.04 -0.28 0.04 c-0.16 0 -0.32 0.04 -0.48 0.08 l-0.56 0.08 l-0.16 0.08 c-0.16 0 -0.32 0.04 -0.44 0.12 l-0.76 0.24 c-0.16 0.08 -0.36 0.16 -0.52 0.2 l-0.48 0.24 l-0.44 0.24 c-0.24 0.08 -0.44 0.24 -0.64 0.36 l-0.24 0.12 l-0.72 0.48 l-0.68 0.52 l-0.44 0.36 l-0.32 0.28 c-0.08 0.08 -0.16 0.2 -0.28 0.28 c-0.08 0.12 -0.24 0.24 -0.36 0.36 l-0.16 0.24 l-0.36 0.4 l-0.32 0.44 l-0.28 0.36 s0 0.04 -0.04 0.04 l-0.08 0.12 c-0.04 0.08 -0.08 0.16 -0.16 0.24 c0 0.04 0 0.04 -0.04 0.04 c-0.08 0.2 -0.2 0.36 -0.28 0.52 l-0.24 0.64 l-0.16 0.48 c-0.04 0.12 -0.04 0.24 -0.04 0.32 c-0.04 0.16 -0.08 0.32 -0.08 0.48 c0 0.08 0 0.16 -0.04 0.2 c0 0.08 0 0.16 0.04 0.2 c-0.08 0.16 0 0.28 0 0.44 c-0.04 0.08 0 0.16 0 0.2 c0.04 0.16 0.08 0.32 0.08 0.44 l0.08 0.2 l0.12 0.32 c0 0.08 0 0.12 0.04 0.2 l0.12 0.36 c0.08 0.16 0.16 0.36 0.2 0.56 l0.12 0.24 c0 0.2 0.08 0.36 0.12 0.56 c0 0.2 0 0.4 -0.08 0.6 c-0.08 0.28 -0.32 0.52 -0.6 0.6 c-0.16 0.04 -0.36 0.04 -0.52 -0.04 c-0.24 -0.12 -0.44 -0.28 -0.6 -0.56 l-0.24 -0.48 l-0.16 -0.8 c0.04 -0.16 -0.04 -0.28 0 -0.4 c0 -0.12 -0.04 -0.24 0 -0.32 l0 -0.32 c0 -0.2 0.04 -0.4 0.04 -0.6 s0.04 -0.4 0.04 -0.6 c0.04 -0.12 0 -0.2 0.04 -0.28 c0 -0.16 0.08 -0.28 0.08 -0.4 s0.04 -0.2 0.04 -0.28 c0.08 -0.2 0.12 -0.4 0.16 -0.6 l0.12 -0.4 l0.28 -0.72 l0.4 -0.76 c0.04 -0.08 0.08 -0.16 0.16 -0.2 c0 -0.04 0.04 -0.08 0.04 -0.12 c0.08 -0.2 0.16 -0.36 0.28 -0.48 l0.24 -0.32 c0.04 -0.04 0.08 -0.12 0.16 -0.16 l0 -0.04 l0.32 -0.4 c0.04 0 0.04 -0.04 0.04 -0.04 l0.4 -0.44 c0.12 -0.08 0.2 -0.16 0.28 -0.28 l0.04 -0.04 c0.08 -0.04 0.16 -0.12 0.2 -0.2 l0.28 -0.24 l0.52 -0.48 l0.04 0 c0.16 -0.16 0.32 -0.28 0.52 -0.4 c0.08 -0.08 0.16 -0.16 0.24 -0.2 l0.44 -0.28 l0.44 -0.32 c0.12 -0.04 0.2 -0.12 0.28 -0.16 l0.44 -0.24 l0.8 -0.44 l0.52 -0.24 l0.08 0 c0.2 -0.12 0.4 -0.2 0.6 -0.28 c0.12 0 0.2 -0.04 0.28 -0.08 l0.76 -0.24 c0.24 0 0.4 -0.08 0.6 -0.08 c0.16 -0.04 0.36 -0.08 0.52 -0.08 c0.16 -0.04 0.32 -0.04 0.48 -0.12 c0.08 0 0.16 -0.04 0.2 -0.04 l0.32 0 c0.04 0 0.04 -0.04 0.04 -0.04 l0 -0.12 c0 -0.16 0.08 -0.24 0.2 -0.32 s0.28 -0.12 0.44 -0.12 c0.16 0.04 0.36 0.08 0.48 0.2 l0.32 0.24 c0.08 0.04 0.12 0.12 0.16 0.16 c0 0.04 0 0.08 0.04 0.08 c0.12 -0.04 0.2 0 0.32 0 c0.24 0 0.44 0.08 0.68 0.12 l0.32 0.12 l0.52 0.16 l0.6 0.28 l0.76 0.44 l0.64 0.48 l0.24 0.24 c0.08 0.04 0.16 0.12 0.24 0.2 c0.12 0.16 0.28 0.28 0.36 0.44 l0.16 0.32 l0.48 0.76 l0.24 0.72 c0.04 0.16 0.08 0.28 0.08 0.44 l0.12 0.4 c0 0.08 0 0.16 0.04 0.2 c0 0.16 0.04 0.32 0.04 0.48 c0 0.12 0.04 0.28 0.04 0.44 l-0.08 0.4 c0 0.08 -0.04 0.16 -0.04 0.28 l-0.08 0.16 l-0.08 0.4 c-0.08 0.16 -0.12 0.32 -0.16 0.44 l-0.2 0.48 l-0.12 0.32 l-0.48 0.84 c-0.04 0.12 -0.12 0.2 -0.2 0.28 l-0.2 0.28 l-0.32 0.4 c-0.12 0.16 -0.24 0.32 -0.4 0.44 l-0.2 0.24 c-0.08 0.04 -0.12 0.12 -0.2 0.2 l-0.32 0.28 l-0.24 0.2 c-0.16 0.12 -0.28 0.24 -0.44 0.32 c-0.08 0.04 -0.12 0.08 -0.16 0.16 l-0.8 0.48 c-0.08 0.08 -0.2 0.12 -0.28 0.16 c-0.2 0.08 -0.4 0.2 -0.6 0.24 c-0.16 0.08 -0.36 0.16 -0.52 0.2 l-0.44 0.12 l-0.48 0.08 c-0.08 0 -0.16 0.04 -0.24 0.04 c-0.16 0 -0.28 0 -0.44 0.04 c-0.56 0 -1.12 0 -1.72 -0.08 l0.52 0.68 c0.16 0.2 0.24 0.44 0.36 0.72 l0.16 0.44 c0.04 0.16 0.08 0.32 0.08 0.44 c0.08 0.48 0.04 0.92 0.08 1.4 c-0.04 0.16 -0.04 0.32 -0.04 0.52 c0 0.04 -0.04 0.08 -0.04 0.16 c0 0.04 0.04 0.08 0 0.16 l0 0.04 c0 0.2 -0.04 0.44 -0.04 0.68 l0 0.52 c-0.04 0.28 0 0.56 -0.04 0.84 c-0.04 0.44 0 0.88 0 1.32 c0 0.04 0.04 0.12 0 0.16 c0 0.08 0.04 0.12 0.04 0.2 c0 0.12 0.04 0.2 0.04 0.32 l0.16 0.64 l0.12 0.28 l0 0.08 l-0.28 0.12 c-0.12 0 -0.24 0.04 -0.36 0.04 c-0.28 -0.04 -0.56 -0.16 -0.8 -0.32 l-0.36 -0.32 c-0.08 -0.04 -0.16 -0.12 -0.2 -0.2 c-0.16 -0.24 -0.28 -0.48 -0.32 -0.76 l-0.08 -0.44 c-0.04 -0.48 0 -0.96 0 -1.4 c0 -0.16 0 -0.28 0.04 -0.4 c0 -0.12 0 -0.28 0.04 -0.4 l0.08 -0.6 l0.08 -0.36 c0 -0.12 0.04 -0.28 0.04 -0.4 c0.04 -0.08 0.04 -0.16 0.04 -0.24 c0 -0.16 0.04 -0.32 0.04 -0.48 s0.04 -0.32 0.04 -0.52 c-0.04 -0.16 0 -0.32 0 -0.48 s-0.04 -0.32 0 -0.52 c0 -0.08 -0.04 -0.2 -0.04 -0.32 s-0.04 -0.2 -0.08 -0.32 c0 -0.04 0 -0.08 -0.04 -0.16 c-0.08 -0.28 -0.2 -0.52 -0.36 -0.72 c-0.2 -0.28 -0.48 -0.48 -0.76 -0.6 c-0.08 -0.04 -0.12 -0.08 -0.16 -0.04 c-0.04 -0.04 -0.08 -0.08 -0.16 -0.08 l-0.08 0 c-0.08 0 -0.12 0.04 -0.16 0.08 c-0.04 0.12 -0.08 0.2 -0.16 0.28 c-1.2 2.56 -3.24 4.84 -3.64 7.64 l-0.12 0.8 c-0.04 0.2 -0.32 0.48 -0.52 0.52 c-0.24 0.12 -0.52 -0.16 -0.64 -0.32 c-0.16 -0.2 -0.32 -0.48 -0.4 -0.76 c-0.04 -0.12 -0.08 -0.28 -0.08 -0.4 c0 -0.04 -0.04 -0.12 -0.04 -0.16 l0 -1 c0.04 -0.24 0.12 -0.52 0.24 -0.76 c0.04 -0.2 0.12 -0.4 0.2 -0.56 z M19.52 23.36 l0.16 -0.8 c0.04 -0.2 0.04 -0.4 0.04 -0.6 l0 -0.32 c0 -0.16 -0.08 -0.28 -0.08 -0.44 c0 -0.04 -0.04 -0.04 -0.04 -0.08 s0 -0.08 -0.04 -0.16 l-0.04 -0.04 c0 -0.12 -0.08 -0.2 -0.16 -0.32 c0 -0.04 -0.04 -0.08 -0.08 -0.12 c-0.12 -0.2 -0.28 -0.44 -0.48 -0.6 l-0.28 -0.28 l-0.28 -0.24 c-0.12 -0.12 -0.28 -0.24 -0.48 -0.32 l-0.44 -0.24 l-0.64 -0.2 c-0.24 -0.08 -0.44 -0.12 -0.72 -0.12 c0 0 -0.04 0 -0.08 -0.04 c-0.04 0 -0.04 0 -0.04 0.04 l0 0.04 c0.04 0.16 0 0.32 0 0.48 l0 0.08 c0 0.08 -0.04 0.16 -0.04 0.24 c0 0.2 -0.08 0.4 -0.12 0.56 c-0.04 0.2 -0.08 0.4 -0.2 0.56 c-0.04 0.24 -0.2 0.44 -0.28 0.64 l-0.28 0.56 l-0.04 0.04 c-0.08 0.2 -0.2 0.36 -0.32 0.52 c-0.12 0.24 -0.24 0.48 -0.4 0.72 l-0.16 0.32 l-0.36 0.64 l-0.32 0.64 l-0.32 0.6 l-0.28 0.56 c-0.08 0.2 -0.16 0.4 -0.32 0.6 l-0.12 0.2 l-0.36 0.68 l-0.24 0.4 c-0.16 0.28 -0.32 0.52 -0.44 0.8 c-0.04 0.12 -0.12 0.2 -0.16 0.28 l-0.44 0.76 l-0.12 0.16 c-0.08 0.2 -0.2 0.36 -0.32 0.56 l0 0.12 c0.08 0.08 0.08 0.12 0.16 0.16 c0 0.04 0.04 0.04 0.08 0.04 c0.12 0.04 0.2 0.08 0.32 0.08 c0.16 0.04 0.32 0.04 0.44 0.04 c0.04 0.04 0.12 0.04 0.16 0.04 c0.2 0 0.4 -0.04 0.6 -0.04 c0.12 0 0.2 0 0.32 -0.04 l0.2 0 l0.44 -0.12 c0.24 -0.04 0.52 -0.12 0.76 -0.24 s0.52 -0.24 0.76 -0.4 l0.32 -0.16 l0.52 -0.36 c0.2 -0.12 0.4 -0.28 0.6 -0.44 l0.24 -0.24 l0.28 -0.24 l0.88 -0.96 l0.16 -0.24 c0.2 -0.28 0.44 -0.56 0.6 -0.84 c0.12 -0.16 0.2 -0.32 0.32 -0.44 l0.2 -0.32 l0.32 -0.56 c0 -0.08 0.04 -0.16 0.08 -0.2 s0.04 -0.08 0.04 -0.08 l0.24 -0.56 l0.12 -0.36 z M25.28 28.560000000000002 l0.16 0 c0.28 0 0.56 0.08 0.8 0.16 c0.2 0.08 0.4 0.2 0.56 0.36 c0.12 0.16 0.2 0.32 0.28 0.48 c0.12 0.24 0.16 0.52 0.24 0.76 l0 0.16 c0 0.12 -0.04 0.24 0 0.4 c0.04 0.04 0.04 0.08 0 0.12 l0 0.08 c0 0.24 -0.08 0.44 -0.12 0.64 c-0.08 0.24 -0.16 0.48 -0.28 0.72 c-0.08 0.28 -0.24 0.52 -0.36 0.8 c-0.16 0.28 -0.36 0.56 -0.56 0.84 s-0.48 0.52 -0.76 0.8 c-0.24 0.2 -0.52 0.36 -0.76 0.52 c-0.08 0.04 -0.16 0.08 -0.2 0.08 c-0.2 0.12 -0.4 0.2 -0.6 0.24 c-0.2 0.08 -0.36 0.12 -0.56 0.16 c-0.28 0.04 -0.52 0.08 -0.76 0.08 c-0.12 0 -0.2 0 -0.32 -0.04 c-0.04 0 -0.08 0 -0.16 -0.04 c-0.16 0 -0.28 -0.08 -0.4 -0.16 c-0.16 -0.04 -0.28 -0.12 -0.4 -0.2 s-0.2 -0.16 -0.28 -0.28 l-0.24 -0.28 c-0.08 -0.12 -0.16 -0.24 -0.2 -0.36 l0 -0.04 s-0.04 0 -0.04 0.04 c-0.16 0.28 -0.28 0.6 -0.4 0.92 c-0.04 0.16 -0.12 0.32 -0.16 0.52 c-0.04 0.16 -0.08 0.28 -0.08 0.44 c0.04 0.04 0 0.08 0 0.12 c-0.04 0.16 -0.08 0.36 -0.08 0.52 l0 0.52 c0 0.2 0.04 0.36 0.12 0.52 c0 0.04 0 0.08 0.04 0.12 c0.04 0.16 0.08 0.28 0.2 0.36 c0.12 0.2 0.28 0.36 0.48 0.48 c0.04 0.04 0.04 0.04 0.08 0.04 c0.28 0.12 0.6 0.2 0.88 0.24 c0.2 0.04 0.44 0.04 0.64 -0.04 l0.36 -0.08 l0.08 0 c0.12 -0.08 0.32 -0.12 0.48 -0.2 c0.08 0 0.12 -0.04 0.16 -0.08 c0.32 -0.16 0.6 -0.28 0.88 -0.52 c0.28 -0.16 0.52 -0.36 0.76 -0.56 c0.16 -0.16 0.32 -0.32 0.52 -0.44 c0.12 -0.12 0.24 -0.2 0.32 -0.32 l0.24 -0.2 c0.2 -0.16 0.32 -0.4 0.48 -0.6 l0.32 -0.4 c0.12 -0.08 0.2 -0.24 0.28 -0.36 l0.32 -0.36 l0.24 -0.32 l0.4 -0.56 l0.44 -0.56 c0.16 -0.28 0.36 -0.52 0.52 -0.76 l0.24 -0.28 c0 -0.04 0.04 -0.08 0.12 0 l0.08 0 c0.12 0.04 0.16 0.08 0.16 0.2 s-0.04 0.24 -0.12 0.32 c-0.08 0.16 -0.2 0.32 -0.32 0.44 c-0.12 0.2 -0.24 0.4 -0.4 0.56 l-0.52 0.76 l-0.48 0.68 c-0.16 0.24 -0.32 0.48 -0.52 0.72 c-0.08 0.12 -0.2 0.2 -0.28 0.36 l-0.04 0.04 c-0.28 0.2 -0.44 0.44 -0.64 0.64 l-0.96 1 c-0.2 0.2 -0.44 0.4 -0.72 0.56 c-0.12 0.08 -0.28 0.2 -0.44 0.24 l-0.24 0.16 c-0.32 0.16 -0.64 0.28 -0.96 0.36 l-0.48 0.12 l-0.4 0.08 l-0.2 0.08 c-0.08 0 -0.16 0.04 -0.28 0.04 s-0.28 -0.04 -0.4 0 c0 0.04 -0.04 0.04 -0.04 0 c-0.12 -0.04 -0.28 0 -0.4 -0.04 l-0.12 0 c-0.2 -0.04 -0.44 -0.08 -0.6 -0.16 c-0.36 -0.16 -0.72 -0.28 -1 -0.52 c-0.4 -0.32 -0.72 -0.72 -0.92 -1.16 c-0.08 -0.12 -0.12 -0.24 -0.12 -0.4 c0 0 -0.04 0 -0.04 -0.04 c-0.04 -0.12 -0.08 -0.28 -0.08 -0.44 c-0.04 -0.12 -0.04 -0.2 -0.04 -0.32 l0 -0.08 c-0.04 -0.04 -0.04 -0.12 0 -0.16 c0 -0.08 0 -0.16 -0.04 -0.24 l0 -0.08 c0.04 -0.12 0.08 -0.28 0.08 -0.4 l0.12 -0.52 c0 -0.08 0.04 -0.12 0.08 -0.2 l0 -0.08 c0.04 -0.2 0.12 -0.4 0.2 -0.6 c0.08 -0.16 0.16 -0.32 0.2 -0.48 c0.08 -0.24 0.24 -0.44 0.32 -0.68 l0.16 -0.28 c0.04 -0.08 0.12 -0.12 0.12 -0.2 c0.04 -0.12 0.12 -0.2 0.2 -0.32 c0.04 -0.12 0.12 -0.24 0.2 -0.32 l0.56 -0.76 l0.48 -0.56 l0.32 -0.36 c0.08 -0.08 0.2 -0.16 0.28 -0.28 c0.16 -0.16 0.4 -0.32 0.6 -0.48 c0.16 -0.16 0.32 -0.28 0.52 -0.4 c0.2 -0.08 0.36 -0.24 0.56 -0.28 c0.16 -0.16 0.4 -0.24 0.56 -0.32 c0.28 -0.12 0.56 -0.2 0.84 -0.28 c0.2 -0.04 0.4 -0.08 0.64 -0.08 c0.2 -0.04 0.4 -0.04 0.6 -0.04 z M26.44 30.52 c0 -0.12 0 -0.24 -0.04 -0.32 c-0.04 -0.24 -0.08 -0.44 -0.16 -0.64 c-0.04 -0.12 -0.12 -0.2 -0.24 -0.24 l-0.12 0 c-0.08 -0.04 -0.16 -0.08 -0.24 -0.08 c-0.2 -0.04 -0.4 0 -0.6 0.08 c-0.48 0.12 -0.88 0.36 -1.24 0.72 l-0.24 0.24 c-0.08 0.08 -0.16 0.12 -0.2 0.24 c-0.2 0.16 -0.36 0.36 -0.52 0.52 l-0.6 0.64 c-0.12 0.16 -0.24 0.28 -0.32 0.44 c-0.16 0.2 -0.32 0.4 -0.44 0.6 l-0.2 0.24 c-0.2 0.24 -0.28 0.48 -0.32 0.76 c-0.04 0.04 -0.04 0.12 -0.04 0.2 c0.04 0.16 0.04 0.32 0.12 0.52 c0.04 0.16 0.16 0.28 0.28 0.4 c0.16 0.12 0.36 0.12 0.56 0.16 c0.2 0 0.4 0 0.6 0.04 c0.12 0 0.28 -0.04 0.4 -0.04 c0.08 0 0.16 0 0.28 -0.04 c0.16 -0.04 0.32 -0.08 0.44 -0.16 c0.24 -0.12 0.44 -0.24 0.64 -0.4 c0.24 -0.16 0.44 -0.36 0.64 -0.56 c0.16 -0.12 0.24 -0.28 0.36 -0.4 c0.28 -0.32 0.48 -0.64 0.64 -1 c0.2 -0.32 0.32 -0.64 0.4 -1 l0.12 -0.4 c0 -0.16 0.04 -0.36 0.04 -0.52 z M27.440000000000005 38.2 c-0.2 -0.36 0.2 -0.72 0.52 -0.36 c0.16 0.44 0.76 1 0.92 1.16 c0.96 1.12 3.8 1.28 4.44 -0.56 c0.88 -2.44 -2.52 -3.12 -2.84 -6.12 l0 -0.64 l-1.24 1.68 c-0.04 0.12 -0.16 0.2 -0.2 0.28 c-0.04 0.04 -0.08 0.04 -0.08 0 l-0.12 0 c-0.04 0 -0.08 0 -0.12 -0.04 l-0.04 -0.04 c0 -0.08 0 -0.2 0.04 -0.28 c0.04 -0.12 0.12 -0.28 0.2 -0.36 c0.2 -0.28 1.08 -1.48 1.24 -1.76 l0.56 -0.76 l0.24 -0.32 c0.6 -0.68 1.16 -1.2 2.04 -1.56 l0.48 -0.12 c0.24 -0.12 0.48 -0.16 0.76 -0.16 c0.2 0 0.44 0.04 0.68 0.08 l0.36 0.16 l0.24 0.08 c0.32 0.2 0.64 0.4 0.88 0.68 l0.24 0.24 l0.24 0.28 c0.08 0.16 0.16 0.28 0.2 0.48 c0.08 0.16 0.12 0.4 0.12 0.56 c0 0.2 0 0.32 -0.04 0.52 l-0.12 0.48 l-0.24 0.4 c-0.08 0.12 -0.16 0.28 -0.28 0.36 l-0.24 0.28 c-0.04 0.04 -0.08 0.08 -0.16 0.04 c-0.2 0 -0.28 -0.24 -0.28 -0.36 c0.04 -0.12 0.12 -0.28 0.2 -0.32 c0.2 -0.24 0.36 -0.4 0.4 -0.72 c0 -0.08 0.04 -0.16 0.08 -0.28 c0 -0.2 0 -0.44 -0.04 -0.6 c-0.08 -0.2 -0.12 -0.36 -0.24 -0.52 c-0.04 -0.12 -0.16 -0.24 -0.24 -0.4 l-0.12 -0.12 c-0.16 -0.2 -0.32 -0.32 -0.48 -0.36 c-0.24 -0.16 -0.48 -0.2 -0.68 -0.2 c-0.16 -0.04 -0.32 0 -0.48 0 l-0.2 0 l-0.44 0.16 c-0.04 0.04 -0.12 0.04 -0.2 0.08 c-0.2 0.04 -0.32 0.24 -0.48 0.4 c-0.16 0.12 -0.28 0.36 -0.4 0.6 c-0.72 1.28 1.04 3.6 1.92 4.76 l0.4 0.76 c0.12 0.28 0.24 0.64 0.32 1 c0.04 0.32 0.04 0.68 -0.04 1 c-0.12 0.28 -0.24 0.56 -0.36 0.76 l0.08 -0.04 c1.84 -1.08 2.68 -2.48 4.32 -4.24 l0.6 -0.88 c0.04 -0.12 0.16 -0.2 0.2 -0.28 c0.04 -0.04 0.08 -0.08 0.12 0 l0.08 0 c0.04 0 0.08 0.04 0.12 0.04 c0.04 0.04 0.04 0.04 0.04 0.08 l0 0.2 l-0.24 0.44 c-0.2 0.24 -0.4 0.48 -0.56 0.76 c-1.72 2 -2.64 3.16 -4.12 4.2 c-0.2 0.12 -0.36 0.28 -0.52 0.4 c-0.2 0.16 -0.44 0.28 -0.64 0.4 c-0.24 0.12 -0.44 0.24 -0.68 0.32 l-0.12 0.08 c-0.6 0.32 -1.28 0.48 -2 0.48 c-0.24 0 -0.44 -0.04 -0.64 -0.08 c-0.4 -0.04 -0.76 -0.08 -1.08 -0.2 c-0.4 -0.12 -0.68 -0.32 -1 -0.56 c-0.36 -0.32 -0.84 -0.72 -1.28 -1.44 z M53.2 32.84 l0.04 0.04 c0 0.12 0 0.2 -0.04 0.24 c-0.04 0.16 -0.12 0.32 -0.2 0.4 l-0.52 0.72 l-0.56 0.76 l-0.52 0.76 l-0.48 0.64 l-0.12 0.2 l-0.6 0.68 l-0.68 0.72 c-0.12 0.2 -0.28 0.32 -0.44 0.48 l-0.84 0.76 l-0.16 0.08 l-0.44 0.2 c-0.2 0.16 -0.4 0.2 -0.6 0.24 c-0.12 0 -0.24 0.04 -0.36 0.04 s-0.24 -0.04 -0.36 -0.08 s-0.24 -0.04 -0.36 -0.04 l-0.2 -0.16 l-0.28 -0.2 c-0.28 -0.2 -0.44 -0.44 -0.56 -0.72 c-0.12 -0.44 -0.16 -0.92 -0.08 -1.44 c-0.8 1.08 -2.64 2.64 -4.2 2.64 l-0.44 0 c-0.12 0 -0.24 -0.04 -0.36 -0.08 l-0.04 0 c-0.04 0 -0.08 0 -0.16 -0.04 l-0.16 0 l-0.04 -0.08 c-0.12 0 -0.2 -0.08 -0.24 -0.12 l-0.2 -0.16 c-0.28 -0.2 -0.44 -0.44 -0.56 -0.72 c-0.64 -1.92 1.28 -5.2 2.72 -8.04 l0.12 -0.2 c0.08 -0.16 0.24 -0.28 0.32 -0.52 l0.36 -0.56 c0.08 -0.2 0.24 -0.4 0.36 -0.56 c0.08 -0.04 0.16 -0.2 0.28 -0.24 c0.08 -0.08 0.24 -0.12 0.36 -0.12 l0.4 0 c0.08 -0.04 0.16 -0.04 0.24 0 c0.16 0 0.36 0.04 0.52 0.08 c0.2 0.04 0.4 0.16 0.52 0.36 c0 0.08 0 0.12 -0.04 0.2 l-0.44 0.84 l-0.32 0.48 l-0.08 0.2 l-0.24 0.4 l-0.6 1.08 c-0.12 0.28 -0.28 0.52 -0.44 0.76 l-0.52 1.04 l-0.48 0.88 l-0.32 0.68 l-0.2 0.32 l-0.24 0.72 c-0.08 0.16 -0.12 0.36 -0.16 0.48 c0 0.08 -0.04 0.16 -0.04 0.24 c-0.12 0.52 -0.16 1.68 0.68 1.68 c1.6 0 3.4 -2.04 4.04 -3.28 c0.08 -0.16 0.4 -1.08 0.52 -1.24 l0.24 -0.52 l1.64 -3.2 l0.12 -0.2 c0.08 -0.16 0.24 -0.28 0.32 -0.52 l0.36 -0.56 c0.08 -0.2 0.24 -0.4 0.36 -0.56 c0.08 -0.04 0.16 -0.2 0.28 -0.24 c0.08 -0.08 0.24 -0.12 0.36 -0.12 l0.4 0 c0.08 -0.04 0.16 -0.04 0.24 0 c0.16 0 0.36 0.04 0.52 0.08 c0.2 0.04 0.4 0.16 0.52 0.36 c0 0.08 0 0.12 -0.04 0.2 l-0.44 0.84 l-0.32 0.48 l-0.08 0.2 l-0.24 0.4 l-0.6 1.08 c-0.12 0.28 -0.28 0.52 -0.44 0.76 l-0.52 1.04 l-0.48 0.88 l-0.32 0.68 l-0.2 0.32 l-0.24 0.72 c-0.08 0.16 -0.12 0.36 -0.16 0.48 c0 0.08 -0.04 0.16 -0.04 0.24 c0 0.12 -0.04 0.32 -0.04 0.44 c0 0.2 0.08 0.32 0.08 0.44 l0.16 0.24 c0.04 0.04 0.08 0.12 0.16 0.16 c0.08 0.08 0.16 0.12 0.24 0.12 c0.12 0 0.28 0 0.4 -0.04 c0.08 0 0.16 -0.08 0.24 -0.12 c0.2 -0.08 0.36 -0.2 0.52 -0.36 l0.44 -0.44 c0.24 -0.32 0.52 -0.6 0.76 -0.96 l0.36 -0.44 c0.12 -0.12 0.24 -0.2 0.32 -0.4 l0.16 -0.16 c0.2 -0.24 0.32 -0.48 0.52 -0.64 l0.36 -0.56 l0.44 -0.56 l0.56 -0.76 c0.04 -0.08 0.16 -0.2 0.2 -0.32 l0.08 0 c0.04 0.04 0.08 0.04 0.12 0.04 s0.08 0 0.12 0.04 z M72.68 32.84 l0.04 0.04 c0 0.08 0 0.16 -0.04 0.24 c-0.04 0.16 -0.12 0.28 -0.2 0.4 c-0.2 0.24 -0.6 0.88 -0.76 1.12 c-2 2.32 -3.8 5.16 -6.12 5.16 c-0.12 0 -0.24 -0.04 -0.36 -0.08 s-0.24 -0.08 -0.36 -0.08 l-0.2 -0.12 l-0.28 -0.2 c-0.28 -0.2 -0.44 -0.48 -0.56 -0.76 c-0.84 -2.48 4.24 -7.92 2.96 -9.08 l-0.16 -0.12 c-0.08 -0.04 -0.12 -0.08 -0.2 -0.08 c-0.92 0 -1.64 0.24 -2.24 0.64 l-0.24 0.16 c-0.96 0.6 -1.8 2.36 -2.56 3.68 l-0.48 0.92 l-1.16 2.48 l-0.12 0.24 l-0.12 0.4 c-0.12 0.24 -0.24 0.48 -0.32 0.72 c-0.12 0.2 -0.2 0.44 -0.28 0.64 l-0.2 0.4 c-0.08 0.12 -0.16 0.2 -0.28 0.28 s-0.24 0.12 -0.36 0.12 l-0.4 0 c-0.16 -0.04 -0.32 -0.08 -0.48 -0.08 l-0.6 -0.12 c-0.2 -0.08 -0.28 -0.28 -0.24 -0.52 c0.04 -0.12 0.08 -0.24 0.16 -0.32 l0.44 -1.04 l0.2 -0.4 l0.36 -0.68 l0.24 -0.48 c0.12 -0.24 0.2 -0.48 0.36 -0.68 c1.12 -2.52 3.28 -5.36 2.4 -6.16 l-0.16 -0.12 c-0.08 -0.04 -0.12 -0.08 -0.2 -0.08 c-0.92 0 -1.64 0.24 -2.24 0.64 l-0.24 0.16 c-0.2 0.12 -0.36 0.24 -0.52 0.4 c-0.16 0.12 -0.32 0.28 -0.48 0.48 c-0.2 0.16 -0.36 0.36 -0.52 0.6 l-0.36 0.44 c-0.2 0.28 -0.4 0.52 -0.56 0.8 l-0.6 1.04 l-0.68 1.36 l-0.24 0.4 l-0.28 0.68 c-0.08 0.16 -0.2 0.32 -0.28 0.52 c-0.12 0.2 -0.2 0.4 -0.28 0.6 l-0.12 0.4 c-0.12 0.24 -0.24 0.48 -0.32 0.72 c-0.12 0.2 -0.2 0.44 -0.28 0.64 l-0.2 0.4 c-0.08 0.12 -0.16 0.2 -0.28 0.28 s-0.24 0.12 -0.36 0.12 l-0.4 0 c-0.16 -0.04 -0.32 -0.08 -0.48 -0.08 l-0.6 -0.12 c-0.2 -0.08 -0.28 -0.28 -0.24 -0.52 c0.04 -0.12 0.08 -0.24 0.16 -0.32 l0.44 -1.04 l0.2 -0.4 l0.36 -0.68 l0.24 -0.48 c0.12 -0.24 0.2 -0.48 0.32 -0.68 l0.2 -0.4 c0.12 -0.2 0.24 -0.36 0.32 -0.56 l0.48 -0.92 c0.12 -0.16 0.2 -0.36 0.28 -0.56 l0.12 -0.28 l0.36 -0.6 l0.08 -0.16 c0.08 -0.28 0.24 -0.52 0.4 -0.72 c0.04 -0.12 0.12 -0.2 0.16 -0.28 c0.16 -0.32 0.32 -0.64 0.52 -0.92 l0.6 -1.04 l0.48 -0.72 c0 -0.08 0.04 -0.12 0.08 -0.16 c0.04 -0.08 0.16 -0.12 0.24 -0.16 c0.16 -0.04 0.28 -0.12 0.44 -0.12 l0.16 -0.04 l0.4 0 c0.2 0 0.36 0.08 0.56 0.12 c0.16 0.04 0.28 0.16 0.36 0.24 c0 0.12 0.12 0.2 0.04 0.28 c0.04 0.12 0 0.2 -0.08 0.28 l-0.08 0.2 l-0.48 0.76 c-0.04 0 0 0 0 0.04 l0.04 -0.04 c0.24 -0.2 0.48 -0.36 0.72 -0.52 c0.28 -0.16 0.56 -0.32 0.84 -0.44 c0.4 -0.2 1.56 -0.48 2 -0.4 c1.48 0.28 2 1 2 1.92 c0.48 -0.4 1.28 -0.96 1.44 -1.08 c1 -0.6 2 -0.84 2.44 -0.88 c0.16 0 0.24 0 0.4 0.04 c3.04 0.6 1.96 2.96 0.84 5.24 l-0.48 0.92 c-0.12 0.2 -0.2 0.44 -0.32 0.68 l-0.2 0.32 l-0.24 0.72 c-0.08 0.16 -0.12 0.32 -0.16 0.48 c0 0.08 -0.04 0.12 -0.04 0.2 c0 0.16 -0.04 0.32 -0.04 0.48 s0.08 0.32 0.08 0.44 l0.16 0.24 c0.04 0.04 0.08 0.12 0.16 0.16 s0.16 0.08 0.24 0.08 c0.12 0 0.28 0 0.4 -0.04 c0.92 -0.24 3.12 -3.08 3.92 -4.04 l1 -1.36 c0.04 -0.08 0.16 -0.16 0.2 -0.28 c0.04 -0.04 0.08 -0.04 0.08 0 c0.04 0.04 0.08 0.04 0.12 0.04 s0.08 0 0.12 0.04 z M78.52 28.560000000000002 l0.16 0 c0.28 0 0.56 0.08 0.8 0.16 c0.2 0.08 0.4 0.2 0.56 0.36 c0.12 0.16 0.2 0.32 0.28 0.48 c0.12 0.24 0.16 0.52 0.24 0.76 l0 0.16 c0 0.12 -0.04 0.24 0 0.4 c0.04 0.04 0.04 0.08 0 0.12 l0 0.08 c0 0.24 -0.08 0.44 -0.12 0.64 c-0.08 0.24 -0.16 0.48 -0.28 0.72 c-0.08 0.28 -0.24 0.52 -0.36 0.8 c-0.16 0.28 -0.36 0.56 -0.56 0.84 s-0.48 0.52 -0.76 0.8 c-0.24 0.2 -0.52 0.36 -0.76 0.52 c-0.08 0.04 -0.16 0.08 -0.2 0.08 c-0.2 0.12 -0.4 0.2 -0.6 0.24 c-0.2 0.08 -0.36 0.12 -0.56 0.16 c-0.28 0.04 -0.52 0.08 -0.76 0.08 c-0.12 0 -0.2 0 -0.32 -0.04 c-0.04 0 -0.08 0 -0.16 -0.04 c-0.16 0 -0.28 -0.08 -0.4 -0.16 c-0.16 -0.04 -0.28 -0.12 -0.4 -0.2 s-0.2 -0.16 -0.28 -0.28 l-0.24 -0.28 c-0.08 -0.12 -0.16 -0.24 -0.2 -0.36 l0 -0.04 s-0.04 0 -0.04 0.04 c-0.16 0.28 -0.28 0.6 -0.4 0.92 c-0.04 0.16 -0.12 0.32 -0.16 0.52 c-0.04 0.16 -0.08 0.28 -0.08 0.44 c0.04 0.04 0 0.08 0 0.12 c-0.04 0.16 -0.08 0.36 -0.08 0.52 l0 0.52 c0 0.2 0.04 0.36 0.12 0.52 c0 0.04 0 0.08 0.04 0.12 c0.04 0.16 0.08 0.28 0.2 0.36 c0.12 0.2 0.28 0.36 0.48 0.48 c0.04 0.04 0.04 0.04 0.08 0.04 c0.28 0.12 0.6 0.2 0.88 0.24 c0.2 0.04 0.44 0.04 0.64 -0.04 l0.36 -0.08 l0.08 0 c0.12 -0.08 0.32 -0.12 0.48 -0.2 c0.08 0 0.12 -0.04 0.16 -0.08 c0.32 -0.16 0.6 -0.28 0.88 -0.52 c0.28 -0.16 0.52 -0.36 0.76 -0.56 c0.16 -0.16 0.32 -0.32 0.52 -0.44 c0.12 -0.12 0.24 -0.2 0.32 -0.32 l0.24 -0.2 c0.2 -0.16 0.32 -0.4 0.48 -0.6 l0.32 -0.4 c0.12 -0.08 0.2 -0.24 0.28 -0.36 l0.32 -0.36 l0.24 -0.32 l0.4 -0.56 l0.44 -0.56 c0.16 -0.28 0.36 -0.52 0.52 -0.76 l0.24 -0.28 c0 -0.04 0.04 -0.08 0.12 0 l0.08 0 c0.12 0.04 0.16 0.08 0.16 0.2 s-0.04 0.24 -0.12 0.32 c-0.08 0.16 -0.2 0.32 -0.32 0.44 c-0.12 0.2 -0.24 0.4 -0.4 0.56 l-0.52 0.76 l-0.48 0.68 c-0.16 0.24 -0.32 0.48 -0.52 0.72 c-0.08 0.12 -0.2 0.2 -0.28 0.36 l-0.04 0.04 c-0.28 0.2 -0.44 0.44 -0.64 0.64 l-0.96 1 c-0.2 0.2 -0.44 0.4 -0.72 0.56 c-0.12 0.08 -0.28 0.2 -0.44 0.24 l-0.24 0.16 c-0.32 0.16 -0.64 0.28 -0.96 0.36 l-0.48 0.12 l-0.4 0.08 l-0.2 0.08 c-0.08 0 -0.16 0.04 -0.28 0.04 s-0.28 -0.04 -0.4 0 c0 0.04 -0.04 0.04 -0.04 0 c-0.12 -0.04 -0.28 0 -0.4 -0.04 l-0.12 0 c-0.2 -0.04 -0.44 -0.08 -0.6 -0.16 c-0.36 -0.16 -0.72 -0.28 -1 -0.52 c-0.4 -0.32 -0.72 -0.72 -0.92 -1.16 c-0.08 -0.12 -0.12 -0.24 -0.12 -0.4 c0 0 -0.04 0 -0.04 -0.04 c-0.04 -0.12 -0.08 -0.28 -0.08 -0.44 c-0.04 -0.12 -0.04 -0.2 -0.04 -0.32 l0 -0.08 c-0.04 -0.04 -0.04 -0.12 0 -0.16 c0 -0.08 0 -0.16 -0.04 -0.24 l0 -0.08 c0.04 -0.12 0.08 -0.28 0.08 -0.4 l0.12 -0.52 c0 -0.08 0.04 -0.12 0.08 -0.2 l0 -0.08 c0.04 -0.2 0.12 -0.4 0.2 -0.6 c0.08 -0.16 0.16 -0.32 0.2 -0.48 c0.08 -0.24 0.24 -0.44 0.32 -0.68 l0.16 -0.28 c0.04 -0.08 0.12 -0.12 0.12 -0.2 c0.04 -0.12 0.12 -0.2 0.2 -0.32 c0.04 -0.12 0.12 -0.24 0.2 -0.32 l0.56 -0.76 l0.48 -0.56 l0.32 -0.36 c0.08 -0.08 0.2 -0.16 0.28 -0.28 c0.16 -0.16 0.4 -0.32 0.6 -0.48 c0.16 -0.16 0.32 -0.28 0.52 -0.4 c0.2 -0.08 0.36 -0.24 0.56 -0.28 c0.16 -0.16 0.4 -0.24 0.56 -0.32 c0.28 -0.12 0.56 -0.2 0.84 -0.28 c0.2 -0.04 0.4 -0.08 0.64 -0.08 c0.2 -0.04 0.4 -0.04 0.6 -0.04 z M79.67999999999999 30.52 c0 -0.12 0 -0.24 -0.04 -0.32 c-0.04 -0.24 -0.08 -0.44 -0.16 -0.64 c-0.04 -0.12 -0.12 -0.2 -0.24 -0.24 l-0.12 0 c-0.08 -0.04 -0.16 -0.08 -0.24 -0.08 c-0.2 -0.04 -0.4 0 -0.6 0.08 c-0.48 0.12 -0.88 0.36 -1.24 0.72 l-0.24 0.24 c-0.08 0.08 -0.16 0.12 -0.2 0.24 c-0.2 0.16 -0.36 0.36 -0.52 0.52 l-0.6 0.64 c-0.12 0.16 -0.24 0.28 -0.32 0.44 c-0.16 0.2 -0.32 0.4 -0.44 0.6 l-0.2 0.24 c-0.2 0.24 -0.28 0.48 -0.32 0.76 c-0.04 0.04 -0.04 0.12 -0.04 0.2 c0.04 0.16 0.04 0.32 0.12 0.52 c0.04 0.16 0.16 0.28 0.28 0.4 c0.16 0.12 0.36 0.12 0.56 0.16 c0.2 0 0.4 0 0.6 0.04 c0.12 0 0.28 -0.04 0.4 -0.04 c0.08 0 0.16 0 0.28 -0.04 c0.16 -0.04 0.32 -0.08 0.44 -0.16 c0.24 -0.12 0.44 -0.24 0.64 -0.4 c0.24 -0.16 0.44 -0.36 0.64 -0.56 c0.16 -0.12 0.24 -0.28 0.36 -0.4 c0.28 -0.32 0.48 -0.64 0.64 -1 c0.2 -0.32 0.32 -0.64 0.4 -1 l0.12 -0.4 c0 -0.16 0.04 -0.36 0.04 -0.52 z M116.32 17.16 c0.04 0.08 0.04 0.2 0.04 0.32 c0 0.08 0 0.2 -0.04 0.28 l-0.12 0.36 c-0.12 0.2 -0.24 0.36 -0.4 0.52 l-0.2 0.2 l-0.24 0.16 c-0.12 0.08 -0.24 0.16 -0.4 0.2 c-0.04 0 -0.12 0.04 -0.16 0.04 c-0.16 0.04 -0.28 0.08 -0.44 0.08 l-0.04 0 c-0.12 0.04 -0.28 0 -0.44 0.04 c-0.12 0 -0.24 -0.04 -0.36 -0.04 c-0.08 0.04 -0.12 0 -0.2 0 c-0.04 -0.04 -0.12 0 -0.16 0 l-0.52 -0.08 l-0.76 -0.08 l-0.68 -0.12 c-0.24 0 -0.44 -0.04 -0.64 -0.08 l-0.16 0 l-4.44 -0.24 l-0.12 0 c-0.12 -0.04 -0.2 -0.04 -0.28 -0.04 l-0.36 0 c-0.12 0 -0.24 -0.04 -0.36 -0.04 s-0.24 0.04 -0.36 0 l-0.32 0 l0 0.4 c-0.04 0.08 -0.04 0.16 -0.04 0.24 l-0.12 0.56 c-0.08 0.2 -0.12 0.4 -0.2 0.56 c-0.04 0.24 -0.2 0.44 -0.28 0.64 l-0.28 0.56 l-0.04 0.04 l-0.32 0.52 l-0.4 0.72 l-0.16 0.32 c-0.12 0.2 -0.24 0.44 -0.4 0.64 l-0.32 0.64 c-0.08 0.2 -0.16 0.4 -0.28 0.6 c-0.08 0.16 -0.32 0.52 -0.4 0.76 c-0.12 0.12 -0.2 0.28 -0.24 0.4 c-0.2 0.28 -0.36 0.6 -0.48 0.88 l-0.48 0.84 c-0.04 0.04 -0.08 0.12 -0.08 0.16 c-1.72 2.84 -5.2 8.88 -5.48 10 l-0.44 1.76 c-0.04 0.2 -0.32 0.48 -0.52 0.52 c-0.24 0.12 -0.52 -0.16 -0.64 -0.32 c-0.16 -0.2 -0.32 -0.48 -0.4 -0.76 c-0.04 -0.12 -0.08 -0.28 -0.08 -0.4 c0 -0.04 -0.04 -0.12 -0.04 -0.16 l0 -1 c0.04 -0.24 0.12 -0.52 0.24 -0.76 c0.04 -0.2 0.12 -0.4 0.2 -0.56 l0.16 -0.44 l0.16 -0.32 l0.24 -0.36 c0.16 -0.16 0.28 -0.32 0.4 -0.52 l1.28 -2.2 l0.36 -0.56 l0.48 -0.8 c0.16 -0.32 0.36 -0.64 0.56 -0.96 c0.12 -0.16 0.04 -0.12 0.16 -0.28 c0.16 -0.24 0.24 -0.48 0.36 -0.72 c0.16 -0.24 0.28 -0.48 0.4 -0.72 l0.44 -0.76 c0.12 -0.28 0.28 -0.52 0.4 -0.76 l0.44 -0.76 l0.08 -0.12 l0.32 -0.56 l0.4 -0.72 c0.12 -0.16 0.2 -0.32 0.24 -0.52 c0.04 -0.08 0.08 -0.2 0.16 -0.28 l0.36 -0.64 l0.48 -0.92 l0.28 -0.56 c0.16 -0.28 0.28 -0.56 0.44 -0.8 c0.12 -0.24 0.24 -0.52 0.4 -0.76 l0.32 -0.84 c0.04 -0.12 0.08 -0.28 0.08 -0.4 c0.04 -0.12 0.08 -0.28 0.08 -0.4 c0 -0.04 0.04 -0.08 0.04 -0.16 c0 -0.04 0 -0.08 0.04 -0.12 l0 -0.08 c0 -0.04 -0.04 -0.04 -0.04 -0.04 l-0.32 0 c-0.48 0 -2.8 0.04 -3.88 0.28 l-0.4 0.12 l-0.76 0.24 l-0.52 0.2 l-0.48 0.24 l-0.44 0.24 l-0.68 0.36 l-0.2 0.12 l-0.72 0.48 c-0.24 0.16 -0.48 0.32 -0.68 0.52 l-0.44 0.36 l-0.32 0.28 c-0.08 0.08 -0.16 0.2 -0.28 0.28 c-0.08 0.12 -0.24 0.24 -0.36 0.36 c-0.04 0.08 -0.12 0.16 -0.2 0.24 l-0.32 0.4 c-0.12 0.16 -0.24 0.28 -0.32 0.44 c-0.12 0.12 -0.2 0.24 -0.28 0.36 l-0.04 0.04 l-0.24 0.36 c0 0.04 -0.04 0.04 -0.04 0.04 c-0.08 0.2 -0.2 0.36 -0.28 0.52 c-0.12 0.2 -0.2 0.4 -0.24 0.64 c-0.08 0.16 -0.12 0.32 -0.16 0.48 l-0.08 0.32 c0 0.16 -0.04 0.32 -0.04 0.48 c-0.04 0.08 -0.04 0.16 -0.04 0.2 c0 0.08 -0.04 0.16 0 0.2 c-0.04 0.16 0.04 0.28 0.04 0.44 c-0.04 0.08 0 0.16 0 0.2 l0.08 0.44 c0 0.08 0.04 0.12 0.08 0.2 c0 0.12 0.04 0.2 0.08 0.32 l0.08 0.2 l0.12 0.36 c0.08 0.2 0.16 0.36 0.2 0.56 c0.04 0.08 0.08 0.16 0.08 0.24 c0.04 0.2 0.12 0.36 0.12 0.56 c0.04 0.2 0.04 0.4 -0.04 0.6 c-0.12 0.28 -0.32 0.52 -0.6 0.6 c-0.16 0.04 -0.36 0.04 -0.52 -0.04 c-0.28 -0.12 -0.48 -0.28 -0.6 -0.56 c-0.08 -0.16 -0.2 -0.32 -0.24 -0.48 c-0.04 -0.12 -0.08 -0.28 -0.08 -0.4 l-0.08 -0.4 c0 -0.16 -0.04 -0.28 -0.04 -0.4 l0 -0.32 c0 -0.12 0 -0.24 0.04 -0.32 c0 -0.2 0 -0.4 0.04 -0.6 c0 -0.2 0 -0.4 0.04 -0.6 c0 -0.08 0 -0.2 0.04 -0.28 c0 -0.16 0.04 -0.28 0.08 -0.4 c0 -0.12 0.04 -0.2 0.04 -0.28 l0.16 -0.6 l0.12 -0.4 c0.08 -0.24 0.16 -0.48 0.28 -0.72 s0.24 -0.52 0.4 -0.76 l0.12 -0.2 l0.08 -0.12 c0.04 -0.2 0.16 -0.36 0.28 -0.48 l0.36 -0.48 c0.04 0 0.04 0 0.04 -0.04 c0.08 -0.12 0.24 -0.24 0.32 -0.4 l0.04 -0.04 l0.4 -0.44 c0.08 -0.08 0.2 -0.16 0.28 -0.28 l0.04 -0.04 c0.08 -0.04 0.12 -0.12 0.2 -0.2 l0.28 -0.24 c0.16 -0.16 0.32 -0.32 0.52 -0.44 c0 -0.04 0 -0.04 0.04 -0.04 c0.12 -0.16 0.32 -0.28 0.48 -0.4 l0.28 -0.2 l0.44 -0.28 c0.12 -0.12 0.28 -0.2 0.44 -0.32 c0.08 -0.04 0.16 -0.12 0.28 -0.16 l0.44 -0.24 l0.76 -0.44 l0.56 -0.24 l0.04 0 c0.2 -0.12 0.44 -0.2 0.64 -0.24 l0.28 -0.12 l0.76 -0.24 c0.2 0 0.92 -0.32 4.52 -0.32 c0.04 0 0.04 -0.04 0.04 -0.04 l0 -0.12 c0 -0.16 0.08 -0.24 0.2 -0.32 s0.28 -0.12 0.44 -0.08 c0.16 0 0.32 0.04 0.48 0.16 l0.32 0.24 l0.12 0.16 c0.04 0.04 0.04 0.08 0.08 0.08 c0 -0.04 0.04 -0.04 0.04 -0.04 l0.08 0.16 c0.08 -0.04 0.16 -0.04 0.2 -0.04 c0.08 0 0.16 0 0.24 0.04 c0.08 0 0.12 -0.04 0.2 0 l0.52 0 c0.12 0.04 0.24 0 0.32 0.04 l0.44 0 c0 -0.04 0 0 0.04 0 l3.8 0.28 l0.16 0 c0.16 0 0.36 0.04 0.56 0.04 c0.16 0 0.32 0.04 0.48 0.04 c0.12 0.04 0.2 0.04 0.32 0.04 l1.12 0 c0.28 0 0.52 -0.04 0.76 -0.08 c0.12 0 0.2 -0.04 0.32 -0.08 c0.04 -0.04 0.12 -0.04 0.2 -0.04 c0.12 -0.04 0.28 -0.08 0.4 -0.16 c0.16 -0.08 0.32 -0.12 0.44 -0.2 c0.08 -0.04 0.12 -0.08 0.16 -0.08 c0.08 -0.08 0.16 -0.12 0.24 -0.16 l0.4 -0.32 l0.24 -0.32 c0.08 -0.08 0.16 -0.12 0.24 -0.12 c0.04 -0.04 0.12 -0.04 0.16 0 c0.08 0 0.12 0 0.16 0.08 c0.04 0.04 0.08 0.12 0.16 0.12 c0.08 0.04 0.12 0.12 0.16 0.2 z M111.23999999999998 32.84 l0.04 0.04 c0 0.08 0 0.16 -0.04 0.24 c-0.04 0.16 -0.12 0.28 -0.2 0.4 c-0.2 0.24 -0.36 0.48 -0.52 0.72 l-0.56 0.76 l-0.52 0.76 l-0.48 0.64 l-0.12 0.2 l-0.6 0.68 l-0.68 0.72 c-0.12 0.16 -0.28 0.32 -0.44 0.44 c-0.28 0.28 -0.52 0.52 -0.84 0.76 l-0.16 0.08 l-0.44 0.24 c-0.2 0.12 -0.4 0.2 -0.6 0.24 c-0.12 0 -0.24 0.04 -0.36 0.04 s-0.24 -0.04 -0.36 -0.08 s-0.24 -0.08 -0.36 -0.08 l-0.2 -0.12 l-0.28 -0.2 c-0.28 -0.2 -0.44 -0.48 -0.56 -0.76 c-0.48 -1.48 0.92 -4.72 2.36 -7.16 c-0.88 0.28 -1.96 0.28 -2.8 -0.04 c-0.12 0.16 -0.24 0.36 -0.4 0.52 l-0.36 0.52 l-0.44 0.6 l-0.56 0.76 c-0.04 0.08 -0.16 0.16 -0.2 0.28 c-0.04 0.04 -0.08 0.04 -0.08 0 c-0.04 -0.04 -0.08 -0.04 -0.12 -0.04 s-0.08 0 -0.12 -0.04 l-0.04 -0.04 c0 -0.08 0 -0.16 0.04 -0.24 c0.04 -0.16 0.12 -0.28 0.2 -0.4 c0.2 -0.24 0.36 -0.48 0.52 -0.72 l0.56 -0.76 l0.48 -0.72 c-0.56 -0.4 -0.96 -1 -0.96 -1.88 c0 -0.72 0.32 -1.48 0.88 -1.96 l0.04 0 l0.08 -0.08 c0.08 -0.08 0.24 -0.12 0.36 -0.12 c0.4 -0.12 1.12 -0.08 1.16 0.6 c0.04 0.16 0 0.28 0 0.4 c-0.24 1.04 -0.52 3.04 0.76 3.04 c1.2 0 2.2 -1.72 3.12 -2.2 c0.32 -0.08 0.6 -0.08 0.92 -0.04 c0.2 0.04 0.48 0.04 0.64 0.16 c0.08 0.08 0.12 0.16 0.16 0.24 l-0.08 0.08 l-0.24 0.44 l-0.2 0.36 l-1.2 1.84 c-0.12 0.28 -0.28 0.56 -0.44 0.8 c-0.2 0.32 -0.36 0.68 -0.52 1 l-0.48 0.92 c-0.12 0.2 -0.2 0.44 -0.32 0.68 l-0.2 0.32 l-0.24 0.72 c-0.08 0.16 -0.12 0.32 -0.16 0.48 c0 0.08 -0.04 0.12 -0.04 0.2 c0 0.16 -0.04 0.32 -0.04 0.48 s0.08 0.32 0.08 0.44 l0.16 0.24 c0.04 0.04 0.08 0.12 0.16 0.16 s0.16 0.08 0.24 0.08 c0.12 0 0.28 0 0.4 -0.04 c0.08 0 0.16 -0.04 0.24 -0.08 c0.2 -0.08 0.36 -0.24 0.52 -0.36 l0.44 -0.44 c0.24 -0.32 0.52 -0.6 0.76 -0.96 l0.36 -0.44 c0.12 -0.16 0.24 -0.24 0.32 -0.4 l0.16 -0.2 c0.2 -0.2 0.32 -0.44 0.52 -0.64 l0.36 -0.52 l0.44 -0.6 l0.56 -0.76 c0.04 -0.08 0.16 -0.16 0.2 -0.28 c0.04 -0.04 0.08 -0.04 0.08 0 c0.04 0.04 0.08 0.04 0.12 0.04 s0.08 0 0.12 0.04 z M116.99999999999999 28.64 l0.16 0 c0.28 -0.04 0.52 0.08 0.76 0.16 s0.44 0.2 0.6 0.4 c0.12 0.12 0.2 0.28 0.24 0.44 l0.08 0.48 l0 0.36 c0 0.04 0.04 0.08 0.04 0.12 s0.04 0.04 0.08 0.04 c0 -0.04 0.04 -0.04 0.04 -0.08 l0.12 -0.2 l0.32 -0.52 c0.08 -0.2 0.24 -0.36 0.36 -0.56 c0.08 -0.2 0.24 -0.4 0.36 -0.56 c0.08 -0.08 0.16 -0.2 0.28 -0.24 c0.08 -0.08 0.24 -0.12 0.36 -0.12 c0.12 -0.04 0.24 0 0.4 -0.04 c0.08 0 0.16 -0.04 0.24 0 c0.16 0 0.36 0.08 0.52 0.12 c0.2 0.04 0.4 0.12 0.52 0.36 c0 0.08 0 0.12 -0.04 0.2 c-0.16 0.24 -0.32 0.56 -0.44 0.84 l-0.32 0.48 l-0.08 0.16 l-0.24 0.44 l-0.2 0.36 c-0.12 0.24 -0.24 0.48 -0.4 0.68 c-0.12 0.28 -0.28 0.56 -0.44 0.8 l-0.52 1 l-0.48 0.92 c-0.12 0.2 -0.2 0.44 -0.32 0.68 l-0.2 0.32 l-0.24 0.72 c-0.08 0.16 -0.12 0.32 -0.16 0.48 c0 0.08 -0.04 0.16 -0.04 0.2 c0 0.16 -0.04 0.32 -0.04 0.52 c0 0.12 0.04 0.28 0.08 0.4 l0.16 0.24 c0.04 0.08 0.08 0.12 0.16 0.16 s0.12 0.08 0.24 0.08 s0.28 0 0.4 -0.04 c0.08 0 0.16 -0.04 0.24 -0.08 c0.2 -0.08 0.36 -0.24 0.52 -0.36 c0.12 -0.16 0.28 -0.28 0.44 -0.44 c0.24 -0.32 0.52 -0.6 0.76 -0.96 l0.36 -0.44 c0.08 -0.16 0.2 -0.24 0.32 -0.4 l0.16 -0.2 c0.2 -0.2 0.32 -0.44 0.52 -0.64 l0.36 -0.52 l0.44 -0.6 l0.56 -0.76 c0.04 -0.08 0.16 -0.16 0.2 -0.28 c0 0 0.04 -0.04 0.08 0 s0.08 0.04 0.12 0.04 s0.08 0 0.12 0.04 l0.04 0.04 c0 0.08 0 0.16 -0.04 0.24 c-0.04 0.16 -0.12 0.28 -0.24 0.4 c-0.16 0.24 -0.32 0.48 -0.52 0.72 c-0.16 0.24 -0.32 0.52 -0.52 0.76 l-0.52 0.76 l-0.48 0.64 l-0.12 0.2 l-0.6 0.68 l-0.68 0.72 c-0.16 0.16 -0.28 0.32 -0.44 0.44 c-0.28 0.28 -0.52 0.52 -0.84 0.76 l-0.16 0.08 l-0.44 0.24 c-0.2 0.12 -0.4 0.2 -0.6 0.24 c-0.12 0 -0.24 0.04 -0.36 0.04 s-0.24 -0.04 -0.36 -0.08 s-0.24 -0.08 -0.36 -0.08 l-0.2 -0.12 c-0.12 -0.04 -0.2 -0.12 -0.28 -0.2 c-0.28 -0.2 -0.44 -0.48 -0.56 -0.76 c-0.16 -0.28 -0.2 -0.56 -0.16 -0.88 l0 -0.52 c0.04 -0.08 0.08 -0.08 0.04 -0.16 l-0.08 0.08 l-0.52 0.56 c-0.24 0.32 -0.56 0.6 -0.84 0.92 c-0.12 0.08 -0.24 0.2 -0.4 0.28 c-0.08 0.08 -0.16 0.16 -0.24 0.2 c-0.24 0.16 -0.48 0.32 -0.76 0.44 c-0.28 0.16 -0.64 0.32 -0.96 0.44 c-0.12 0.04 -0.2 0.04 -0.32 0.04 l-0.32 0 c-0.24 0 -0.48 -0.04 -0.68 -0.12 c-0.04 0 -0.12 0 -0.16 -0.04 c-0.2 -0.04 -0.36 -0.16 -0.52 -0.28 c-0.2 -0.12 -0.36 -0.32 -0.52 -0.56 l-0.12 -0.24 c-0.08 -0.2 -0.16 -0.4 -0.2 -0.6 c-0.04 -0.16 -0.08 -0.32 -0.08 -0.44 c-0.04 -0.12 0 -0.24 0 -0.36 c-0.04 -0.08 0 -0.16 -0.04 -0.24 c0.04 -0.12 0 -0.24 0.04 -0.36 l0 -0.08 c0 -0.2 0.08 -0.4 0.08 -0.6 l0.16 -0.6 c0 -0.08 0.04 -0.2 0.08 -0.32 c0.08 -0.24 0.16 -0.48 0.28 -0.72 l0.16 -0.4 l0.24 -0.48 c0.12 -0.12 0.12 -0.28 0.24 -0.4 l0.04 -0.04 c0 -0.12 0.12 -0.2 0.16 -0.32 l0.24 -0.36 l0.52 -0.72 l0.44 -0.52 l0.32 -0.36 c0.08 -0.12 0.2 -0.2 0.32 -0.28 c0.16 -0.2 0.4 -0.36 0.56 -0.52 l0.56 -0.4 c0.2 -0.08 0.32 -0.2 0.52 -0.28 l0.28 -0.12 c0.2 -0.12 0.44 -0.2 0.64 -0.28 s0.4 -0.12 0.56 -0.2 l0.24 0 c0.08 -0.04 0.2 -0.04 0.32 -0.04 c0.2 -0.04 0.4 -0.04 0.6 -0.04 z M118.31999999999998 31.28 l0 -0.72 c0 -0.16 -0.04 -0.28 -0.04 -0.44 c-0.08 -0.2 -0.16 -0.36 -0.28 -0.52 c-0.08 -0.08 -0.16 -0.16 -0.24 -0.2 c-0.04 0 -0.12 0 -0.16 -0.04 c-0.08 0 -0.16 -0.04 -0.24 -0.04 c-0.2 -0.04 -0.36 0 -0.52 0.04 c-0.2 0.04 -0.4 0.12 -0.64 0.24 c-0.32 0.16 -0.64 0.44 -0.88 0.68 l-0.28 0.32 l-0.72 0.76 s-0.04 0 -0.04 0.04 l-0.36 0.44 c-0.16 0.16 -0.28 0.36 -0.44 0.56 c-0.2 0.24 -0.4 0.56 -0.6 0.84 l-0.28 0.48 c-0.16 0.2 -0.28 0.4 -0.4 0.64 c-0.16 0.28 -0.28 0.56 -0.4 0.84 c-0.04 0.16 -0.12 0.32 -0.16 0.52 l-0.12 0.4 c0 0.12 -0.08 0.24 -0.04 0.4 c-0.04 0.12 -0.08 0.24 -0.08 0.36 c0 0.24 0 0.48 0.04 0.76 c0.04 0.2 0.08 0.4 0.16 0.6 c0.08 0.24 0.24 0.44 0.44 0.6 c0.16 0.08 0.32 0.16 0.48 0.2 c0.2 0 0.36 0 0.56 -0.08 c0 -0.04 0.04 0 0.08 -0.04 c0.04 0 0.12 0 0.16 -0.04 c0.28 -0.2 0.56 -0.32 0.84 -0.56 c0.24 -0.2 0.52 -0.36 0.72 -0.6 l0.36 -0.4 l0.48 -0.64 c0.08 -0.12 0.16 -0.28 0.28 -0.4 l0.36 -0.56 l0.44 -0.76 l0.36 -0.8 l0.36 -0.68 c0 -0.04 0 -0.08 0.04 -0.12 c0.08 -0.12 0.16 -0.24 0.2 -0.36 c0.16 -0.24 0.28 -0.48 0.4 -0.76 c0.08 -0.16 0.08 -0.32 0.16 -0.44 c-0.04 -0.2 0.04 -0.36 0 -0.52 z M130.4 28.560000000000002 l0.28 0 c0.24 -0.04 0.44 0.08 0.68 0.12 l0.4 0.24 c0.24 0.16 0.4 0.4 0.48 0.68 c0 0.16 0.04 0.28 0.04 0.44 c0 0.04 0.04 0.12 0.04 0.2 l0 0.2 c0.04 0.04 0 0.12 0 0.2 c0 0.28 -0.08 0.52 -0.2 0.76 c-0.08 0.12 -0.12 0.28 -0.24 0.44 c-0.08 0.16 -0.24 0.28 -0.44 0.36 c-0.04 0 -0.12 0 -0.2 -0.04 c-0.16 -0.08 -0.24 -0.24 -0.2 -0.4 l0.16 -0.32 c0.12 -0.24 0.28 -0.48 0.36 -0.76 c0.04 -0.08 0.04 -0.2 0.04 -0.28 c0.04 -0.08 0.04 -0.2 0.04 -0.28 c0 -0.12 0 -0.24 -0.04 -0.32 c-0.04 -0.16 -0.16 -0.32 -0.28 -0.4 c-0.08 -0.08 -0.2 -0.08 -0.28 -0.12 c-0.16 -0.04 -0.36 -0.08 -0.52 -0.04 s-0.32 0.04 -0.48 0.12 c-0.32 0.08 -0.6 0.24 -0.84 0.44 c-0.2 0.16 -0.36 0.28 -0.52 0.48 c-0.04 0.08 -0.12 0.16 -0.2 0.24 c-0.28 0.24 -0.48 0.52 -0.76 0.76 l-0.36 0.48 l-0.32 0.36 l-0.32 0.4 c-0.08 0.16 -0.2 0.32 -0.32 0.48 c-0.12 0.2 -0.24 0.4 -0.4 0.6 l-0.36 0.64 l-0.08 0.16 c-0.2 0.32 -0.36 0.68 -0.48 1.04 c-0.08 0.24 -0.16 0.48 -0.2 0.72 c-0.04 0.16 -0.04 0.36 -0.12 0.56 c0 0.12 -0.04 0.24 -0.04 0.4 l0 0.6 c0 0.16 0.04 0.28 0.12 0.44 l0 0.12 c0.12 0.24 0.24 0.44 0.4 0.6 c0.08 0.04 0.16 0.12 0.2 0.2 c0.08 0.08 0.2 0.12 0.32 0.16 c0.2 0.04 0.4 0.08 0.6 0.16 c0.2 0.04 0.56 0.08 0.84 0 c0.12 -0.04 0.24 -0.08 0.32 -0.08 c0.04 0 0.08 0 0.08 -0.04 c0.16 -0.08 0.36 -0.12 0.52 -0.16 l0.12 -0.08 c0.32 -0.16 0.64 -0.32 0.92 -0.52 l0.56 -0.4 l0.72 -0.64 l0.56 -0.52 c0.2 -0.16 0.32 -0.36 0.48 -0.56 l0.32 -0.4 c0.12 -0.12 0.2 -0.24 0.28 -0.36 l0.32 -0.4 l0.24 -0.32 l0.4 -0.52 l0.44 -0.6 l0.56 -0.76 c0.04 -0.12 0.16 -0.2 0.2 -0.28 c0.04 -0.04 0.08 -0.08 0.12 0 l0.08 0 c0.04 0 0.08 0.04 0.12 0.04 c0.04 0.04 0.04 0.04 0.04 0.08 l0 0.2 l-0.24 0.44 c-0.2 0.24 -0.4 0.48 -0.56 0.76 l-0.56 0.76 l-0.48 0.72 l-0.52 0.68 l-0.28 0.36 c0 0.04 -0.04 0.04 -0.08 0.08 c-0.24 0.16 -0.4 0.4 -0.6 0.64 l-1.04 1.04 c-0.16 0.16 -0.36 0.28 -0.52 0.4 c-0.2 0.16 -0.44 0.28 -0.64 0.4 c-0.24 0.12 -0.44 0.24 -0.68 0.32 c-0.2 0.08 -0.44 0.16 -0.64 0.2 c-0.04 0 -0.12 0 -0.16 0.04 l-0.44 0.12 c-0.12 0 -0.24 0.04 -0.36 0.08 c-0.08 0 -0.16 0 -0.24 0.04 c-0.12 0 -0.24 -0.04 -0.36 0 c-0.04 0 -0.12 0.04 -0.16 0 l-0.08 0 c-0.28 -0.04 -0.6 -0.08 -0.88 -0.2 c-0.28 -0.08 -0.72 -0.28 -0.92 -0.44 c-0.48 -0.32 -0.84 -0.72 -1.08 -1.28 c-0.04 -0.12 -0.12 -0.24 -0.12 -0.36 c0 -0.04 -0.04 -0.08 -0.04 -0.12 c-0.04 -0.12 -0.08 -0.24 -0.08 -0.36 c0 -0.08 -0.04 -0.16 -0.04 -0.24 l0 -0.2 c-0.04 -0.04 -0.04 -0.12 0 -0.16 l0 -0.12 c-0.04 -0.12 0 -0.2 0 -0.28 s0.04 -0.2 0.04 -0.28 c0.04 -0.16 0.04 -0.32 0.12 -0.48 c0 -0.2 0.16 -0.4 0.16 -0.6 c0.04 -0.16 0.08 -0.28 0.16 -0.4 l0.24 -0.6 l0.24 -0.52 l0.12 -0.16 l0.16 -0.32 l0.2 -0.28 c0.04 -0.16 0.16 -0.28 0.24 -0.4 l0.52 -0.72 l0.44 -0.52 l0.32 -0.36 c0.04 -0.08 0.12 -0.12 0.2 -0.2 c0.08 -0.04 0.12 -0.12 0.16 -0.16 c0.16 -0.16 0.36 -0.28 0.52 -0.4 l0.6 -0.48 c0.2 -0.08 0.32 -0.2 0.52 -0.28 c0.08 0 0.12 -0.08 0.2 -0.08 c0.24 -0.12 0.48 -0.24 0.72 -0.32 l0.6 -0.2 c0.04 0 0.12 0.04 0.16 -0.04 c0.12 0.04 0.24 0 0.32 0 c0.24 -0.04 0.44 -0.04 0.64 -0.04 z M146.16 32.84 l0.04 0.04 c0 0.08 0 0.16 -0.04 0.24 c-0.04 0.16 -0.12 0.28 -0.2 0.4 c-0.2 0.24 -0.6 0.88 -0.76 1.12 c-0.8 0.96 -3.52 5.4 -5.84 5.4 c-2.96 0 -3.52 -2.88 -3.52 -5.88 l-0.28 0.48 l-0.24 0.56 l-0.24 0.4 l-0.28 0.68 c-0.08 0.16 -0.2 0.32 -0.28 0.52 c-0.12 0.2 -0.2 0.4 -0.28 0.6 l-0.12 0.4 c-0.12 0.24 -0.24 0.48 -0.32 0.72 c-0.12 0.2 -0.2 0.44 -0.28 0.64 l-0.2 0.4 c-0.08 0.12 -0.16 0.2 -0.28 0.28 s-0.24 0.12 -0.36 0.12 l-0.4 0 c-0.16 -0.04 -0.32 -0.08 -0.48 -0.08 l-0.6 -0.12 c-0.2 -0.08 -0.28 -0.28 -0.24 -0.52 c0.04 -0.12 0.08 -0.24 0.16 -0.32 l0.44 -1.04 l0.2 -0.4 l0.36 -0.68 l0.24 -0.48 c0.12 -0.24 0.2 -0.48 0.32 -0.68 l0.2 -0.4 c0.12 -0.2 0.24 -0.36 0.32 -0.56 l0.48 -0.92 c0.12 -0.16 0.2 -0.36 0.28 -0.56 l0.12 -0.28 l0.36 -0.6 l0.08 -0.16 c0.08 -0.28 0.24 -0.52 0.4 -0.72 c0.04 -0.12 0.12 -0.2 0.16 -0.28 c0.16 -0.32 0.32 -0.64 0.52 -0.92 l0.6 -1.04 l0.52 -0.88 l0.6 -1.08 c0.12 -0.24 0.24 -0.52 0.44 -0.76 c0.08 -0.04 0.12 -0.12 0.16 -0.24 c0.04 -0.08 0.08 -0.2 0.16 -0.28 l0.36 -0.64 l0.24 -0.4 l0.28 -0.56 c0.08 -0.16 0.16 -0.32 0.2 -0.48 l0.24 -0.36 l0.08 -0.16 l0.4 -0.68 l0.2 -0.32 c0.16 -0.28 0.32 -0.6 0.52 -0.84 c0.04 -0.04 0.04 -0.08 0.04 -0.12 l0.24 -0.4 l0.12 -0.28 l0.36 -0.72 l0.28 -0.44 c0 -0.04 0.04 -0.08 0.08 -0.12 c0.16 -0.2 0.28 -0.48 0.44 -0.72 c0 -0.08 0.04 -0.12 0.08 -0.16 c0.04 -0.08 0.16 -0.12 0.24 -0.16 c0.16 -0.04 0.28 -0.12 0.44 -0.12 l0.16 -0.04 l0.4 0 c0.2 0 0.36 0.08 0.56 0.12 c0.16 0.04 0.28 0.16 0.36 0.24 c0 0.12 0.12 0.2 0.04 0.28 c0.04 0.12 0 0.2 -0.08 0.28 l-0.08 0.2 l-0.32 0.52 c-0.12 0.12 -0.16 0.28 -0.24 0.4 c-0.04 0.16 -0.16 0.32 -0.24 0.52 c-0.04 0.12 -0.16 0.24 -0.24 0.4 c-0.04 0.12 -0.16 0.24 -0.24 0.36 l-0.12 0.24 c-0.2 0.36 -0.36 0.68 -0.6 1 l-0.16 0.32 c-0.04 0.16 -0.16 0.32 -0.28 0.48 l-0.4 0.68 c-0.16 0.32 -0.32 0.64 -0.52 0.92 l-0.24 0.4 l-0.56 1.04 l-0.44 0.84 c-0.08 0.12 -0.16 0.24 -0.2 0.36 c-0.12 0.24 -0.24 0.48 -0.4 0.68 l-0.24 0.4 c-0.16 0.28 -0.32 0.56 -0.44 0.84 c-0.04 0 0 0 0 0.04 l0.04 -0.04 c0.24 -0.2 0.48 -0.36 0.72 -0.52 c0.28 -0.16 0.56 -0.32 0.84 -0.44 c0.24 -0.12 0.6 -0.2 0.84 -0.24 l0.12 0 c0.12 -0.04 0.28 -0.04 0.4 -0.04 l0.16 0 c0.32 0 0.6 0.04 0.92 0.12 c0.48 0.16 0.96 0.44 1.24 0.92 c0.4 0.76 0.28 1.8 -0.08 2.56 c-0.44 0.92 -1.24 1.44 -2.12 1.84 c-0.96 0.44 -2.64 1.04 -3.6 0.76 c0 1.72 0 4.56 1.64 4.56 c1.68 0 3.76 -3.24 5.12 -4.88 l1 -1.36 c0.04 -0.08 0.16 -0.16 0.2 -0.28 c0.04 -0.04 0.08 -0.04 0.08 0 c0.04 0.04 0.08 0.04 0.12 0.04 s0.08 0 0.12 0.04 z M136.79999999999998 33.76 c0.36 0.04 0.68 0.08 1.04 0.08 c1.2 0 2.92 -1.2 3.68 -2.12 c0.4 -0.48 0.56 -1.16 0.4 -1.76 c-0.12 -0.6 -0.76 -0.68 -1.28 -0.6 c-0.52 0.12 -0.96 0.28 -1.36 0.56 l-0.24 0.16 c-0.2 0.12 -0.36 0.24 -0.52 0.4 c-0.16 0.12 -0.32 0.28 -0.48 0.48 c-0.2 0.16 -0.36 0.36 -0.52 0.6 l-0.36 0.44 c-0.2 0.28 -0.84 1.32 -1 1.6 c0.2 0.08 0.4 0.12 0.64 0.16 z M152 28.560000000000002 l0.16 0 c0.28 0 0.56 0.08 0.8 0.16 c0.2 0.08 0.4 0.2 0.56 0.36 c0.12 0.16 0.2 0.32 0.28 0.48 c0.12 0.24 0.16 0.52 0.24 0.76 l0 0.16 c0 0.12 -0.04 0.24 0 0.4 c0.04 0.04 0.04 0.08 0 0.12 l0 0.08 c0 0.24 -0.08 0.44 -0.12 0.64 c-0.08 0.24 -0.16 0.48 -0.28 0.72 c-0.08 0.28 -0.24 0.52 -0.36 0.8 c-0.16 0.28 -0.36 0.56 -0.56 0.84 s-0.48 0.52 -0.76 0.8 c-0.24 0.2 -0.52 0.36 -0.76 0.52 c-0.08 0.04 -0.16 0.08 -0.2 0.08 c-0.2 0.12 -0.4 0.2 -0.6 0.24 c-0.2 0.08 -0.36 0.12 -0.56 0.16 c-0.28 0.04 -0.52 0.08 -0.76 0.08 c-0.12 0 -0.2 0 -0.32 -0.04 c-0.04 0 -0.08 0 -0.16 -0.04 c-0.16 0 -0.28 -0.08 -0.4 -0.16 c-0.16 -0.04 -0.28 -0.12 -0.4 -0.2 s-0.2 -0.16 -0.28 -0.28 l-0.24 -0.28 c-0.08 -0.12 -0.16 -0.24 -0.2 -0.36 l0 -0.04 s-0.04 0 -0.04 0.04 c-0.16 0.28 -0.28 0.6 -0.4 0.92 c-0.04 0.16 -0.12 0.32 -0.16 0.52 c-0.04 0.16 -0.08 0.28 -0.08 0.44 c0.04 0.04 0 0.08 0 0.12 c-0.04 0.16 -0.08 0.36 -0.08 0.52 l0 0.52 c0 0.2 0.04 0.36 0.12 0.52 c0 0.04 0 0.08 0.04 0.12 c0.04 0.16 0.08 0.28 0.2 0.36 c0.12 0.2 0.28 0.36 0.48 0.48 c0.04 0.04 0.04 0.04 0.08 0.04 c0.28 0.12 0.6 0.2 0.88 0.24 c0.2 0.04 0.44 0.04 0.64 -0.04 l0.36 -0.08 l0.08 0 c0.12 -0.08 0.32 -0.12 0.48 -0.2 c0.08 0 0.12 -0.04 0.16 -0.08 c0.32 -0.16 0.6 -0.28 0.88 -0.52 c0.28 -0.16 0.52 -0.36 0.76 -0.56 c0.16 -0.16 0.32 -0.32 0.52 -0.44 c0.12 -0.12 0.24 -0.2 0.32 -0.32 l0.24 -0.2 c0.2 -0.16 0.32 -0.4 0.48 -0.6 l0.32 -0.4 c0.12 -0.08 0.2 -0.24 0.28 -0.36 l0.32 -0.36 l0.24 -0.32 l0.4 -0.56 l0.44 -0.56 c0.16 -0.28 0.36 -0.52 0.52 -0.76 l0.24 -0.28 c0 -0.04 0.04 -0.08 0.12 0 l0.08 0 c0.12 0.04 0.16 0.08 0.16 0.2 s-0.04 0.24 -0.12 0.32 c-0.08 0.16 -0.2 0.32 -0.32 0.44 c-0.12 0.2 -0.24 0.4 -0.4 0.56 l-0.52 0.76 l-0.48 0.68 c-0.16 0.24 -0.32 0.48 -0.52 0.72 c-0.08 0.12 -0.2 0.2 -0.28 0.36 l-0.04 0.04 c-0.28 0.2 -0.44 0.44 -0.64 0.64 l-0.96 1 c-0.2 0.2 -0.44 0.4 -0.72 0.56 c-0.12 0.08 -0.28 0.2 -0.44 0.24 l-0.24 0.16 c-0.32 0.16 -0.64 0.28 -0.96 0.36 l-0.48 0.12 l-0.4 0.08 l-0.2 0.08 c-0.08 0 -0.16 0.04 -0.28 0.04 s-0.28 -0.04 -0.4 0 c0 0.04 -0.04 0.04 -0.04 0 c-0.12 -0.04 -0.28 0 -0.4 -0.04 l-0.12 0 c-0.2 -0.04 -0.44 -0.08 -0.6 -0.16 c-0.36 -0.16 -0.72 -0.28 -1 -0.52 c-0.4 -0.32 -0.72 -0.72 -0.92 -1.16 c-0.08 -0.12 -0.12 -0.24 -0.12 -0.4 c0 0 -0.04 0 -0.04 -0.04 c-0.04 -0.12 -0.08 -0.28 -0.08 -0.44 c-0.04 -0.12 -0.04 -0.2 -0.04 -0.32 l0 -0.08 c-0.04 -0.04 -0.04 -0.12 0 -0.16 c0 -0.08 0 -0.16 -0.04 -0.24 l0 -0.08 c0.04 -0.12 0.08 -0.28 0.08 -0.4 l0.12 -0.52 c0 -0.08 0.04 -0.12 0.08 -0.2 l0 -0.08 c0.04 -0.2 0.12 -0.4 0.2 -0.6 c0.08 -0.16 0.16 -0.32 0.2 -0.48 c0.08 -0.24 0.24 -0.44 0.32 -0.68 l0.16 -0.28 c0.04 -0.08 0.12 -0.12 0.12 -0.2 c0.04 -0.12 0.12 -0.2 0.2 -0.32 c0.04 -0.12 0.12 -0.24 0.2 -0.32 l0.56 -0.76 l0.48 -0.56 l0.32 -0.36 c0.08 -0.08 0.2 -0.16 0.28 -0.28 c0.16 -0.16 0.4 -0.32 0.6 -0.48 c0.16 -0.16 0.32 -0.28 0.52 -0.4 c0.2 -0.08 0.36 -0.24 0.56 -0.28 c0.16 -0.16 0.4 -0.24 0.56 -0.32 c0.28 -0.12 0.56 -0.2 0.84 -0.28 c0.2 -0.04 0.4 -0.08 0.64 -0.08 c0.2 -0.04 0.4 -0.04 0.6 -0.04 z M153.16 30.52 c0 -0.12 0 -0.24 -0.04 -0.32 c-0.04 -0.24 -0.08 -0.44 -0.16 -0.64 c-0.04 -0.12 -0.12 -0.2 -0.24 -0.24 l-0.12 0 c-0.08 -0.04 -0.16 -0.08 -0.24 -0.08 c-0.2 -0.04 -0.4 0 -0.6 0.08 c-0.48 0.12 -0.88 0.36 -1.24 0.72 l-0.24 0.24 c-0.08 0.08 -0.16 0.12 -0.2 0.24 c-0.2 0.16 -0.36 0.36 -0.52 0.52 l-0.6 0.64 c-0.12 0.16 -0.24 0.28 -0.32 0.44 c-0.16 0.2 -0.32 0.4 -0.44 0.6 l-0.2 0.24 c-0.2 0.24 -0.28 0.48 -0.32 0.76 c-0.04 0.04 -0.04 0.12 -0.04 0.2 c0.04 0.16 0.04 0.32 0.12 0.52 c0.04 0.16 0.16 0.28 0.28 0.4 c0.16 0.12 0.36 0.12 0.56 0.16 c0.2 0 0.4 0 0.6 0.04 c0.12 0 0.28 -0.04 0.4 -0.04 c0.08 0 0.16 0 0.28 -0.04 c0.16 -0.04 0.32 -0.08 0.44 -0.16 c0.24 -0.12 0.44 -0.24 0.64 -0.4 c0.24 -0.16 0.44 -0.36 0.64 -0.56 c0.16 -0.12 0.24 -0.28 0.36 -0.4 c0.28 -0.32 0.48 -0.64 0.64 -1 c0.2 -0.32 0.32 -0.64 0.4 -1 l0.12 -0.4 c0 -0.16 0.04 -0.36 0.04 -0.52 z M166.15999999999997 32.84 l0.04 0.04 c0 0.08 0 0.16 -0.04 0.24 c-0.04 0.16 -0.12 0.28 -0.2 0.4 c-0.2 0.24 -0.36 0.48 -0.52 0.72 l-0.56 0.76 l-0.52 0.76 l-0.48 0.64 l-0.12 0.2 l-0.6 0.68 l-0.68 0.72 c-0.12 0.16 -0.28 0.32 -0.44 0.44 c-0.28 0.28 -0.52 0.52 -0.84 0.76 l-0.16 0.08 l-0.44 0.24 c-0.2 0.12 -0.4 0.2 -0.6 0.24 c-0.12 0 -0.24 0.04 -0.36 0.04 s-0.24 -0.04 -0.36 -0.08 s-0.24 -0.08 -0.36 -0.08 l-0.2 -0.12 l-0.28 -0.2 c-0.28 -0.2 -0.44 -0.48 -0.56 -0.76 c-0.48 -1.48 0.92 -4.72 2.36 -7.16 c-0.88 0.28 -1.96 0.28 -2.8 -0.04 c-0.12 0.16 -0.24 0.36 -0.4 0.52 l-0.36 0.52 l-0.44 0.6 l-0.56 0.76 c-0.04 0.08 -0.16 0.16 -0.2 0.28 c-0.04 0.04 -0.08 0.04 -0.08 0 c-0.04 -0.04 -0.08 -0.04 -0.12 -0.04 s-0.08 0 -0.12 -0.04 l-0.04 -0.04 c0 -0.08 0 -0.16 0.04 -0.24 c0.04 -0.16 0.12 -0.28 0.2 -0.4 c0.2 -0.24 0.36 -0.48 0.52 -0.72 l0.56 -0.76 l0.48 -0.72 c-0.56 -0.4 -0.96 -1 -0.96 -1.88 c0 -0.72 0.32 -1.48 0.88 -1.96 l0.04 0 l0.08 -0.08 c0.08 -0.08 0.24 -0.12 0.36 -0.12 c0.4 -0.12 1.12 -0.08 1.16 0.6 c0.04 0.16 0 0.28 0 0.4 c-0.24 1.04 -0.52 3.04 0.76 3.04 c1.2 0 2.2 -1.72 3.12 -2.2 c0.32 -0.08 0.6 -0.08 0.92 -0.04 c0.2 0.04 0.48 0.04 0.64 0.16 c0.08 0.08 0.12 0.16 0.16 0.24 l-0.08 0.08 l-0.24 0.44 l-0.2 0.36 l-1.2 1.84 c-0.12 0.28 -0.28 0.56 -0.44 0.8 c-0.2 0.32 -0.36 0.68 -0.52 1 l-0.48 0.92 c-0.12 0.2 -0.2 0.44 -0.32 0.68 l-0.2 0.32 l-0.24 0.72 c-0.08 0.16 -0.12 0.32 -0.16 0.48 c0 0.08 -0.04 0.12 -0.04 0.2 c0 0.16 -0.04 0.32 -0.04 0.48 s0.08 0.32 0.08 0.44 l0.16 0.24 c0.04 0.04 0.08 0.12 0.16 0.16 s0.16 0.08 0.24 0.08 c0.12 0 0.28 0 0.4 -0.04 c0.08 0 0.16 -0.04 0.24 -0.08 c0.2 -0.08 0.36 -0.24 0.52 -0.36 l0.44 -0.44 c0.24 -0.32 0.52 -0.6 0.76 -0.96 l0.36 -0.44 c0.12 -0.16 0.24 -0.24 0.32 -0.4 l0.16 -0.2 c0.2 -0.2 0.32 -0.44 0.52 -0.64 l0.36 -0.52 l0.44 -0.6 l0.56 -0.76 c0.04 -0.08 0.16 -0.16 0.2 -0.28 c0.04 -0.04 0.08 -0.04 0.08 0 c0.04 0.04 0.08 0.04 0.12 0.04 s0.08 0 0.12 0.04 z"></path></g>
			</g>
		</svg>
	